<svg xmlns="http://www.w3.org/2000/svg" viewBox="0 0 1397.08 541.5"><defs><style>.cls-1{fill:#1a7da3;}.cls-2{fill:#6dc4b5;}.cls-3{fill:#b2dcbf;}.cls-4{fill:#ef4978;}.cls-5{fill:#fdfcdf;}</style></defs><g id="Layer_2" data-name="Layer 2"><g id="Final"><rect class="cls-1" width="256.01" height="256.01" rx="27.34"/><rect class="cls-2" x="284.94" width="256.01" height="256.01" rx="27.34"/><rect class="cls-3" y="285.49" width="256.01" height="256.01" rx="27.34"/><rect class="cls-4" x="284.94" y="285.49" width="256.01" height="256.01" rx="27.34"/><path class="cls-1" d="M587.92,40.35h34.6c29.09,0,47,18.06,47,48.59,0,33.12-17.64,53.08-48.13,53.08H587.92Zm18,87.38h15.11c19.78,0,29.87-14.29,29.87-38.45,0-20.91-10.3-34.43-29.72-34.43H606Z"/><path class="cls-1" d="M747.1,96.45H702.38v30.72h49.31L749.46,142H684.85V40.35h64.2v15H702.38V81.44H747.1Z"/><path class="cls-1" d="M786.63,142,753.56,40.35h19.25l14.34,47.53c4.16,13.72,8.36,27.67,10.35,37.15h.3c2.07-8.77,6.7-23.52,10.89-36.78l15.09-47.9H842.2L808.07,142Z"/><path class="cls-1" d="M915.23,96.45H870.5v30.72h49.31L917.59,142H853V40.35h64.2v15H870.5V81.44h44.73Z"/><path class="cls-1" d="M931,40.35h17.94v86.82h46.61L993.42,142H931Z"/><path class="cls-1" d="M1085.58,90.66c0,29.24-13.94,52.84-45.2,52.84-30.24,0-43.9-23.53-43.9-53C996.48,65,1010.23,39,1041.73,39,1071.54,39,1085.58,62.63,1085.58,90.66Zm-70.51-.15c0,21.51,8.63,38.51,26.11,38.51,18.77,0,26-16.16,26-38.32,0-20.27-7.26-37.24-26.23-37.24C1022.82,53.46,1015.07,69.94,1015.07,90.51Z"/><path class="cls-1" d="M1101.17,40.35h36.31c19,0,34.86,9.81,34.86,29.64,0,20.73-15,31.26-36.59,31.26h-16.59V142h-18Zm18,46.56h15.55c11.8,0,19.35-4.26,19.35-16.57,0-10.9-7.72-15.59-18.87-15.59h-16Z"/><path class="cls-1" d="M1244.82,96.45H1200.1v30.72h49.31L1247.18,142h-64.61V40.35h64.2v15H1200.1V81.44h44.72Z"/><path class="cls-1" d="M1278.83,98.57V142h-17.67V40.35h39.56c18.77,0,32.1,9.31,32.1,27.06,0,14.14-7.79,20.76-16.11,23.77,10.27,3.73,14.2,11.83,14.2,24.87v2.37c0,9.15.42,17.8,1.38,23.6h-17.41c-1.43-4.2-1.83-11.92-1.83-23.78v-2.46c0-12.58-4.57-17.21-19-17.21Zm0-14.4h16.6c11,0,19.48-3,19.48-15.31,0-9.91-7-14.11-16.58-14.11h-19.5Z"/><path class="cls-1" d="M601.25,290.45c1.65,10.59,8.65,16.73,19.91,16.73,11.8,0,17.21-5.44,17.21-14.05,0-9.92-5.49-14.05-21.26-18.7-22.78-6.51-30.87-14.49-30.87-29.14,0-17.93,14.1-28.27,33.31-28.27,23.54,0,33.51,12.76,34.65,28.42H636.53c-1.36-8.49-5.79-14.5-17.22-14.5-10.07,0-15,4.78-15,12.62,0,8.25,5.16,11,20.22,15.4,25.65,7.59,32.21,17.7,32.21,32.08,0,16.7-11.25,30.23-36.34,30.23-21.82,0-35.56-11.24-36.87-30.82Z"/><path class="cls-1" d="M684.49,233.36H656.18v-15h74.74v15H702.57V320H684.49Z"/><path class="cls-1" d="M760.64,218.35V283c0,13.06,4.11,23.93,20.58,23.93s20.13-10.38,20.13-24V218.35h18.18v65.13c0,21.35-9,38-38.71,38-28.69,0-38.2-15.3-38.2-37.66V218.35Z"/><path class="cls-1" d="M836.85,218.35h34.6c29.09,0,47,18.06,47,48.59,0,33.12-17.64,53.08-48.13,53.08H836.85Zm18,87.38H870c19.78,0,29.87-14.29,29.87-38.45,0-20.91-10.3-34.43-29.72-34.43H854.89Z"/><path class="cls-1" d="M997.21,274.45H952.49v30.72h49.31L999.58,320H935V218.35h64.2v15H952.49v26.13h44.72Z"/><path class="cls-1" d="M1011.63,320V218.35h23.13c33.73,65.45,38.82,75.38,40.48,80.09h.25c-1-12.57-1.14-29.11-1.14-45.68V218.35h16.53V320h-22c-36.16-71.57-39.64-79.08-41.37-83h-.15c.74,12.95.76,30.34.76,48.53V320Z"/><path class="cls-1" d="M1127.44,233.36h-28.3v-15h74.74v15h-28.35V320h-18.09Z"/><path class="cls-1" d="M665.33,466.85c-2.84,16.83-14.05,32.65-39.39,32.65-31.26,0-42.71-23.07-42.71-52.56,0-28,14.12-52,43.51-52,26.06,0,36.73,16.39,38,32.62H647.13c-2.24-9.59-6.63-18-21-18-18,0-24.42,17.94-24.42,37.31,0,20,5.74,38.14,24.63,38.14,14.1,0,18.94-9.25,21.27-18.17Z"/><path class="cls-1" d="M762.5,446.66c0,29.24-13.94,52.84-45.2,52.84-30.24,0-43.9-23.53-43.9-53C673.4,421,687.15,395,718.65,395,748.46,395,762.5,418.63,762.5,446.66ZM692,446.51C692,468,700.62,485,718.1,485c18.77,0,26-16.16,26-38.32,0-20.27-7.26-37.24-26.23-37.24C699.74,409.46,692,425.94,692,446.51Z"/><path class="cls-1" d="M857.67,458.24c0-17.8.25-38.05.69-49.24h-.66c-4.62,20.1-16.8,60.11-26.21,89H815.7c-7-24.3-19.48-69-23.92-89.27h-.71c.85,11.84,1.25,34.08,1.25,51.59V498H775.73V396.35H802.6c8.41,25.92,19.06,63.44,22.12,78.37h.19c2.13-12,15.38-52.2,24.18-78.37H875V498H857.67Z"/><path class="cls-1" d="M975.18,458.24c0-17.8.25-38.05.69-49.24h-.66c-4.62,20.1-16.8,60.11-26.21,89H933.21c-7-24.3-19.48-69-23.92-89.27h-.71c.85,11.84,1.25,34.08,1.25,51.59V498H893.24V396.35h26.87c8.41,25.92,19.06,63.44,22.12,78.37h.19c2.13-12,15.38-52.2,24.18-78.37h25.94V498H975.18Z"/><path class="cls-1" d="M1026,396.35V461c0,13.06,4.11,23.93,20.57,23.93s20.14-10.38,20.14-24V396.35h18.17v65.13c0,21.35-9,38-38.71,38-28.69,0-38.2-15.3-38.2-37.66V396.35Z"/><path class="cls-1" d="M1103.69,498V396.35h23.12c33.74,65.45,38.83,75.38,40.49,80.09h.25c-1-12.57-1.14-29.11-1.14-45.68V396.35h16.53V498h-22c-36.16-71.57-39.64-79.08-41.37-83h-.15c.74,12.95.76,30.34.76,48.53V498Z"/><path class="cls-1" d="M1221.68,396.35V498h-17.94V396.35Z"/><path class="cls-1" d="M1262,411.36h-28.3v-15h74.74v15h-28.35V498H1262Z"/><path class="cls-1" d="M1345.58,498V459.09a5.48,5.48,0,0,0-.85-3.09l-32.48-59.65h20.26c7.61,15.54,18.46,36.83,22.87,45.8,7.07-14.53,15.73-31.24,22.92-45.8h18.78l-32.81,59.45a4.75,4.75,0,0,0-.75,2.9V498Z"/><path class="cls-5" d="M81.53,56.21H135c44.91,0,66.63,26.18,66.63,66.75,0,44.35-24,71.56-67.3,71.56H81.53Zm38.28,110.87h12.65c20.06,0,29.47-13.46,29.47-43.57,0-26-7.84-39.66-29.06-39.66H119.81Z"/><path class="cls-5" d="M395.31,152.25c1.46,11.24,8,18.11,20.59,18.11,12.72,0,16.75-5.33,16.75-12.89,0-10-6.61-14.49-25.46-19.67-34.43-9.32-44.77-22.44-44.77-41.8,0-27.88,22.69-42.24,51.64-42.24,34.22,0,52,16.46,53.51,42.05H431.51C430.39,87.16,426.43,80,414.21,80c-9.39,0-14.48,4.33-14.48,11.72,0,8.56,6.16,11.06,24.65,16.3C460.86,118.43,471,132.28,471,153.27c0,26.32-19.57,43.71-56.22,43.71-34.19,0-54.32-17.14-55.86-44.73Z"/><path class="cls-5" d="M482.7,436.52C478.92,463.77,461.4,485,423.54,485c-46.72,0-62.33-32.62-62.33-71.46,0-39.6,20-71.89,63.69-71.89,42.06,0,56.05,26.55,57.14,47.84H444.62c-2-10.51-5.41-19.85-20.31-19.85-17.83,0-23.57,18.37-23.57,43.76,0,25.73,5.8,43.6,23.62,43.6,15,0,19-11.08,20.79-20.52Z"/><path class="cls-5" d="M20.32,401.88l66.61-32.74v23.39L44.12,412.38l42.81,19.9v23.5l-66.61-32.9Z"/><path class="cls-5" d="M101.76,459.05l36.48-120.88h21.09L123,459.05Z"/><path class="cls-5" d="M237.83,423l-66.61,32.74V432.39L214,412.54l-42.81-19.9v-23.5L237.83,402Z"/></g></g></svg>